<svg width="272" height="252" viewBox="0 0 272 252" fill="none" xmlns="http://www.w3.org/2000/svg">
<path d="M3.41113 183.476L20.2949 242.158L80.5941 225.277L52.4545 182.673L3.41113 183.476Z" fill="#E27625" stroke="#E27625" stroke-width="0.25" stroke-linecap="round" stroke-linejoin="round"/>
<path d="M80.5947 225.277L85.4187 182.673L52.4551 183.476L80.5947 225.277Z" fill="#CC6228" stroke="#CC6228" stroke-width="0.25" stroke-linecap="round" stroke-linejoin="round"/>
<path d="M60.4971 135.244L85.4207 184.28L84.6168 160.164L60.4971 135.244Z" fill="#E27525" stroke="#E27525" stroke-width="0.25" stroke-linecap="round" stroke-linejoin="round"/>
<path d="M77.3782 109.52L21.9029 125.597L3.41113 182.671H52.4545L85.4181 183.475L60.4944 134.44L77.3782 109.52Z" fill="#F5841F" stroke="#F5841F" stroke-width="0.25" stroke-linecap="round" stroke-linejoin="round"/>
<path d="M258.277 1L152.15 78.9744L171.446 33.1544L258.277 1Z" fill="#E17726" stroke="#E17726" stroke-width="0.25" stroke-linecap="round" stroke-linejoin="round"/>
<path d="M14.6685 1L119.187 79.7782L100.695 33.1544L14.6685 1Z" fill="#E27625" stroke="#E27625" stroke-width="0.25" stroke-linecap="round" stroke-linejoin="round"/>
<path d="M220.491 182.673L192.352 225.277L252.651 242.158L269.535 183.476L220.491 182.673Z" fill="#E27625" stroke="#E27625" stroke-width="0.25" stroke-linecap="round" stroke-linejoin="round"/>
<path d="M77.3809 109.52L60.4971 134.44L119.992 136.852L118.384 72.543L77.3809 109.52Z" fill="#E27625" stroke="#E27625" stroke-width="0.25" stroke-linecap="round" stroke-linejoin="round"/>
<path d="M195.565 109.521L153.758 72.543L152.15 137.656L211.645 135.244L195.565 109.521Z" fill="#E27625" stroke="#E27625" stroke-width="0.25" stroke-linecap="round" stroke-linejoin="round"/>
<path d="M80.5957 225.277L116.775 207.592L85.4196 183.477L80.5957 225.277Z" fill="#E27625" stroke="#E27625" stroke-width="0.25" stroke-linecap="round" stroke-linejoin="round"/>
<path d="M156.172 207.592L192.352 225.277L187.528 183.477L156.172 207.592Z" fill="#E27625" stroke="#E27625" stroke-width="0.25" stroke-linecap="round" stroke-linejoin="round"/>
<path d="M192.352 225.277L156.172 207.593L159.388 230.904V240.551L192.352 225.277Z" fill="#D5BFB2" stroke="#D5BFB2" stroke-width="0.25" stroke-linecap="round" stroke-linejoin="round"/>
<path d="M80.5957 225.278L114.363 241.355V231.708L117.579 208.396L80.5957 225.278Z" fill="#D5BFB2" stroke="#D5BFB2" stroke-width="0.25" stroke-linecap="round" stroke-linejoin="round"/>
<path d="M114.363 168.203L84.6152 159.361L105.519 149.714L114.363 168.203Z" fill="#233447" stroke="#233447" stroke-width="0.25" stroke-linecap="round" stroke-linejoin="round"/>
<path d="M157.78 168.203L166.624 149.714L187.527 159.361L157.78 168.203Z" fill="#233447" stroke="#233447" stroke-width="0.25" stroke-linecap="round" stroke-linejoin="round"/>
<path d="M186.721 182.673L191.545 225.277L219.685 183.476L186.721 182.673Z" fill="#CC6228" stroke="#CC6228" stroke-width="0.25" stroke-linecap="round" stroke-linejoin="round"/>
<path d="M212.448 135.244L152.953 137.656L158.581 168.202L167.425 149.714L188.329 159.36L212.448 135.244Z" fill="#CC6228" stroke="#CC6228" stroke-width="0.25" stroke-linecap="round" stroke-linejoin="round"/>
<path d="M84.6168 159.36L105.52 149.714L114.364 168.202L119.992 137.656L60.4971 135.244L84.6168 159.36Z" fill="#CC6228" stroke="#CC6228" stroke-width="0.25" stroke-linecap="round" stroke-linejoin="round"/>
<path d="M188.332 159.36L187.528 183.476L212.452 134.44L188.332 159.36Z" fill="#E27525" stroke="#E27525" stroke-width="0.25" stroke-linecap="round" stroke-linejoin="round"/>
<path d="M119.991 137.655L114.363 168.202L121.599 204.376L123.207 156.948L119.991 137.655Z" fill="#E27525" stroke="#E27525" stroke-width="0.25" stroke-linecap="round" stroke-linejoin="round"/>
<path d="M152.151 137.655L148.935 156.948L150.543 204.376L157.778 168.202L152.151 137.655Z" fill="#E27525" stroke="#E27525" stroke-width="0.25" stroke-linecap="round" stroke-linejoin="round"/>
<path d="M157.778 168.203L150.542 204.376L155.366 207.592L186.722 183.476L187.525 159.36L157.778 168.203Z" fill="#F5841F" stroke="#F5841F" stroke-width="0.25" stroke-linecap="round" stroke-linejoin="round"/>
<path d="M84.6152 159.36L85.4192 183.476L116.775 207.592L121.599 204.376L114.363 168.203L84.6152 159.36Z" fill="#F5841F" stroke="#F5841F" stroke-width="0.25" stroke-linecap="round" stroke-linejoin="round"/>
<path d="M158.583 241.354V231.707L156.171 229.296H115.971L113.559 231.707V241.354L80.5957 225.277L92.6555 234.923L115.971 251H156.975L181.094 234.923L192.35 225.277L158.583 241.354Z" fill="#C0AC9D" stroke="#C0AC9D" stroke-width="0.25" stroke-linecap="round" stroke-linejoin="round"/>
<path d="M156.171 207.591L151.347 204.376H121.599L116.776 207.591L113.56 230.903L115.972 228.492H156.171L158.583 230.903L156.171 207.591Z" fill="#161616" stroke="#161616" stroke-width="0.25" stroke-linecap="round" stroke-linejoin="round"/>
<path d="M262.299 84.6014L271.143 41.193L257.475 1L156.172 76.5628L195.568 109.521L251.043 125.598L263.103 111.129L257.475 107.913L266.319 99.8747L259.887 95.0515L268.731 88.6207L262.299 84.6014Z" fill="#763E1A" stroke="#763E1A" stroke-width="0.25" stroke-linecap="round" stroke-linejoin="round"/>
<path d="M1 41.193L9.84388 84.6014L4.21596 88.6207L13.0598 95.0515L6.62793 99.8747L15.4718 107.913L9.84388 111.933L21.9037 126.402L77.379 110.325L116.774 77.3666L14.6678 1L1 41.193Z" fill="#763E1A" stroke="#763E1A" stroke-width="0.25" stroke-linecap="round" stroke-linejoin="round"/>
<path d="M251.044 125.597L195.568 109.52L212.452 134.44L187.528 183.475L220.492 182.671H269.535L251.044 125.597Z" fill="#F5841F" stroke="#F5841F" stroke-width="0.25" stroke-linecap="round" stroke-linejoin="round"/>
<path d="M152.15 137.656L155.366 76.5627L171.446 33.1543H99.8906L115.97 76.5627L119.186 137.656L120.794 156.949V204.376H150.542V156.949L152.15 137.656Z" fill="#F5841F" stroke="#F5841F" stroke-width="0.25" stroke-linecap="round" stroke-linejoin="round"/>
</svg>
