<svg width="709" height="200" viewBox="0 0 709 200" fill="none" xmlns="http://www.w3.org/2000/svg">
<path d="M708.103 0V200H678.904V0H708.103Z" fill="#F2F2F2"/>
<path d="M295.803 110.793V199.723H264.749V49.9456H294.557V74.3234H296.53C300.2 66.3925 305.947 60.0217 313.771 55.2112C321.665 50.4006 331.601 47.9954 343.579 47.9954C354.45 47.9954 363.97 50.1406 372.141 54.4311C380.311 58.6566 386.646 64.9623 391.147 73.3483C395.648 81.7343 397.898 92.103 397.898 104.454V199.723H366.844V107.965C366.844 97.1086 363.832 88.6251 357.808 82.5144C351.784 76.3386 343.51 73.2508 332.985 73.2508C325.784 73.2508 319.38 74.7135 313.771 77.6388C308.232 80.5641 303.835 84.8546 300.581 90.5103C297.396 96.1009 295.803 102.862 295.803 110.793Z" fill="#F2F2F2"/>
<path d="M246.944 50.3179L190.755 199.723H158.474L102.184 50.3179H134.566L173.808 165.29H175.422L214.562 50.3179H246.944Z" fill="#F2F2F2"/>
<path d="M0 199.468V49.4675H28.2227V73.2957H29.7852C32.5195 65.2227 37.3372 58.8751 44.2383 54.2527C51.2044 49.5652 59.082 47.2214 67.8711 47.2214C69.694 47.2214 71.8424 47.2865 74.3164 47.4168C76.8555 47.547 78.8411 47.7097 80.2734 47.905V75.8347C79.1016 75.5092 77.0182 75.1511 74.0234 74.7605C71.0286 74.3048 68.0338 74.0769 65.0391 74.0769C58.138 74.0769 51.9857 75.5418 46.582 78.4714C41.2435 81.336 37.0117 85.3399 33.8867 90.4832C30.7617 95.5613 29.1992 101.356 29.1992 107.866V199.468H0Z" fill="#F2F2F2"/>
<path d="M508.395 199.723L423.444 51.092H458.515L519.696 157.861L534.894 127.52H565.679L529.438 199.723H508.395Z" fill="#F63D20"/>
<path d="M606.596 199.339L523.203 51.092H557.885L590.619 108.701L619.845 51.092H653.358L607.765 137.89L641.667 199.339H606.596Z" fill="#F63D20"/>
</svg>
